<svg xmlns="http://www.w3.org/2000/svg" xmlns:xlink="http://www.w3.org/1999/xlink"
	 viewBox="0 0 42.8 48">
<style type="text/css">
	.st0{fill:#FFFFFF;}
	.st1{fill:url(#SVGID_1_);}
	.st2{fill:url(#SVGID_2_);}
	.st3{fill:url(#SVGID_3_);}
</style>
		<path class="st0" d="M21.4,0C9.6,0,0,9.6,0,21.4s9.6,21.4,21.4,21.4c11.8,0,21.4-9.6,21.4-21.4C42.8,9.6,33.3,0,21.4,0
			C21.5,0,21.4,0,21.4,0z M21.4,40.9c-10.8,0-19.5-8.7-19.5-19.5c0-10.8,8.7-19.5,19.5-19.5s19.5,8.7,19.5,19.5c0,0,0,0,0,0
			C40.9,32.2,32.2,40.9,21.4,40.9L21.4,40.9L21.4,40.9z"/>
			<linearGradient id="SVGID_1_" gradientUnits="userSpaceOnUse" x1="14.2925" y1="44.255" x2="23.8075" y2="34.75" gradientTransform="matrix(1 0 0 -1 0 50)">
			<stop  offset="0" style="stop-color:#B78628"/>
			<stop  offset="0.25" style="stop-color:#C69320"/>
			<stop  offset="0.5" style="stop-color:#DBA514"/>
			<stop  offset="0.75" style="stop-color:#EEB609"/>
			<stop  offset="1" style="stop-color:#FCC201"/>
		</linearGradient>
		<polygon class="st1" points="30.9,8.1 11.9,8.1 11.9,17.6 15.7,17.6 15.7,11.9 27.1,11.9 		"/>
		
			<linearGradient id="SVGID_2_" gradientUnits="userSpaceOnUse" x1="10.1411" y1="28.7025" x2="23.2111" y2="15.6225" gradientTransform="matrix(1 0 0 -1 0 50)">
			<stop  offset="0" style="stop-color:#B78628"/>
			<stop  offset="0.25" style="stop-color:#C69320"/>
			<stop  offset="0.5" style="stop-color:#DBA514"/>
			<stop  offset="0.75" style="stop-color:#EEB609"/>
			<stop  offset="1" style="stop-color:#FCC201"/>
		</linearGradient>
		<polygon class="st2" points="30.9,19.5 11.9,19.5 11.9,45.7 15.7,41.9 15.7,23.3 27.1,23.3 		"/>
		
			<linearGradient id="SVGID_3_" gradientUnits="userSpaceOnUse" x1="14.7913" y1="29.5513" x2="30.0013" y2="14.3413" gradientTransform="matrix(1 0 0 -1 0 50)">
			<stop  offset="0" style="stop-color:#B78628"/>
			<stop  offset="0.25" style="stop-color:#C69320"/>
			<stop  offset="0.5" style="stop-color:#DBA514"/>
			<stop  offset="0.75" style="stop-color:#EEB609"/>
			<stop  offset="1" style="stop-color:#FCC201"/>
		</linearGradient>
		<path class="st3" d="M17.6,48V25.2h11.9c0,0,3.8,0,3.8-3.8s-3.8-3.8-3.8-3.8H17.6l3.8-3.8h8.1c0,0,7.6,0,7.6,7.6S29.5,29,29.5,29
			h-8.1v15.2L17.6,48z"/>
</svg>
