<svg xmlns="http://www.w3.org/2000/svg" xmlns:xlink="http://www.w3.org/1999/xlink" viewBox="0 0 42.84 48.04"><defs><style>.cls-1{stroke:#000;stroke-miterlimit:10;stroke-width:0.07px;}.cls-2{fill:url(#linear-gradient);}.cls-3{fill:url(#linear-gradient-2);}.cls-4{fill:url(#linear-gradient-3);}</style><linearGradient id="linear-gradient" x1="14.29" y1="5.74" x2="23.8" y2="15.24" gradientUnits="userSpaceOnUse"><stop offset="0" stop-color="#b78628"/><stop offset="0.25" stop-color="#c69320"/><stop offset="0.5" stop-color="#dba514"/><stop offset="0.75" stop-color="#eeb609"/><stop offset="1" stop-color="#fcc201"/></linearGradient><linearGradient id="linear-gradient-2" x1="10.14" y1="21.3" x2="23.2" y2="34.37" xlink:href="#linear-gradient"/><linearGradient id="linear-gradient-3" x1="14.78" y1="20.46" x2="29.99" y2="35.67" xlink:href="#linear-gradient"/></defs><g id="Layer_2" data-name="Layer 2"><g id="Layer_1-2" data-name="Layer 1"><path class="cls-1" d="M21.42,0A21.39,21.39,0,1,0,42.81,21.42,21.38,21.38,0,0,0,21.42,0Zm0,40.87A19.49,19.49,0,1,1,40.91,21.42,19.49,19.49,0,0,1,21.42,40.91Z"/><polygon class="cls-2" points="30.93 8.12 11.92 8.12 11.92 17.62 15.72 17.62 15.72 11.92 27.13 11.92 30.93 8.12"/><polygon class="cls-3" points="30.93 19.52 11.92 19.52 11.92 45.66 15.72 41.86 15.72 23.32 27.13 23.32 30.93 19.52"/><path class="cls-4" d="M17.62,48V25.22H29.5s3.8,0,3.8-3.8-3.8-3.8-3.8-3.8H17.62l3.8-3.8H29.5s7.61,0,7.61,7.6S29.5,29,29.5,29H21.42v15.2Z"/></g></g></svg>