<svg xmlns="http://www.w3.org/2000/svg" viewBox="0 0 42.84 48.04"><defs><style>.cls-1{stroke:#000;stroke-miterlimit:10;stroke-width:0.07px;}</style></defs><g id="Layer_2" data-name="Layer 2"><g id="Layer_1-2" data-name="Layer 1"><path class="cls-1" d="M21.42,0A21.39,21.39,0,1,0,42.81,21.42,21.38,21.38,0,0,0,21.42,0Zm0,40.87A19.49,19.49,0,1,1,40.91,21.42,19.49,19.49,0,0,1,21.42,40.91Z"/><polygon points="30.93 8.12 11.92 8.12 11.92 17.62 15.72 17.62 15.72 11.92 27.13 11.92 30.93 8.12"/><polygon points="30.93 19.52 11.92 19.52 11.92 45.66 15.72 41.86 15.72 23.32 27.13 23.32 30.93 19.52"/><path d="M17.62,48V25.22H29.5s3.8,0,3.8-3.8-3.8-3.8-3.8-3.8H17.62l3.8-3.8H29.5s7.61,0,7.61,7.6S29.5,29,29.5,29H21.42v15.2Z"/></g></g></svg>